<svg width="85" height="85" viewBox="0 0 85 85" fill="none" xmlns="http://www.w3.org/2000/svg">
<path fill-rule="evenodd" clip-rule="evenodd" d="M81.2282 33.4334L73.178 38.08C73.598 41.0117 73.598 43.9883 73.178 46.92L81.2282 51.5702L69.7178 71.5063L61.6641 66.8561C59.3401 68.6917 56.7636 70.1828 54.0141 71.2832V80.573H30.9932V71.2832C28.2412 70.1834 25.6623 68.6923 23.3361 66.8561L15.2824 71.5063L3.77197 51.5667L11.8257 46.92C11.4057 43.9883 11.4057 41.0117 11.8257 38.08L3.77197 33.4334L15.2824 13.4938L23.3397 18.1475C25.6648 16.3116 28.2425 14.8205 30.9932 13.7205V4.42712H54.0141V13.7205C56.7872 14.829 59.362 16.3271 61.6676 18.1475L69.7214 13.4973L81.2318 33.4334H81.2282ZM42.5001 54.8959C44.1279 54.8959 45.7398 54.5752 47.2438 53.9523C48.7477 53.3293 50.1142 52.4163 51.2653 51.2652C52.4163 50.1142 53.3294 48.7477 53.9524 47.2437C54.5753 45.7398 54.8959 44.1279 54.8959 42.5C54.8959 40.8722 54.5753 39.2603 53.9524 37.7564C53.3294 36.2524 52.4163 34.8859 51.2653 33.7349C50.1142 32.5838 48.7477 31.6707 47.2438 31.0478C45.7398 30.4248 44.1279 30.1042 42.5001 30.1042C39.2125 30.1042 36.0596 31.4102 33.7349 33.7349C31.4103 36.0595 30.1043 39.2125 30.1043 42.5C30.1043 45.7876 31.4103 48.9405 33.7349 51.2652C36.0596 53.5899 39.2125 54.8959 42.5001 54.8959Z" fill="#8FBFFA"/>
</svg>
