<svg width="85" height="85" viewBox="0 0 85 85" fill="none" xmlns="http://www.w3.org/2000/svg">
<path d="M3.31152 24.3317H81.2282V77.4567H3.31152V24.3317Z" fill="#8FBFFA"/>
<path fill-rule="evenodd" clip-rule="evenodd" d="M81.2282 6.62341H3.31152V24.3317H81.2282V6.62341ZM33.6424 63.8178L44.2674 35.4845L50.8974 37.9707L40.2724 66.304L33.6424 63.8178ZM27.3701 37.7653L16.7451 48.3903L14.2411 50.8942L16.7451 53.3982L27.3701 64.0232L32.378 59.0153L24.2569 50.8942L32.378 42.7732L27.3701 37.7653ZM52.1617 42.7732L60.2828 50.8942L52.1617 59.0153L57.1697 64.0232L67.7947 53.3982L70.2986 50.8942L67.7947 48.3903L57.1697 37.7653L52.1617 42.7732Z" fill="#2859C5"/>
</svg>
