<svg width="30" height="32" viewBox="0 0 30 32" fill="none" xmlns="http://www.w3.org/2000/svg">
<path d="M15 0.799988C13.0302 0.799988 11.0796 1.20998 9.25975 2.00655C7.43986 2.80312 5.78628 3.97067 4.3934 5.44254C1.58035 8.41511 0 12.4468 0 16.6506C0 23.6566 4.305 29.6006 10.26 31.7088C11.01 31.8356 11.25 31.3442 11.25 30.9162C11.25 30.5517 11.25 29.5531 11.25 28.2375C7.095 29.1885 6.21 26.1135 6.21 26.1135C5.52 24.2748 4.545 23.7834 4.545 23.7834C3.18 22.8007 4.65 22.8324 4.65 22.8324C6.15 22.9434 6.945 24.465 6.945 24.465C8.25 26.8743 10.455 26.161 11.31 25.7806C11.445 24.7503 11.835 24.0529 12.255 23.6566C8.925 23.2604 5.43 21.8972 5.43 15.8581C5.43 14.0987 6 12.688 6.975 11.5626C6.825 11.1663 6.3 9.51785 7.125 7.37801C7.125 7.37801 8.385 6.95004 11.25 8.99478C12.435 8.64606 13.725 8.47171 15 8.47171C16.275 8.47171 17.565 8.64606 18.75 8.99478C21.615 6.95004 22.875 7.37801 22.875 7.37801C23.7 9.51785 23.175 11.1663 23.025 11.5626C24 12.688 24.57 14.0987 24.57 15.8581C24.57 21.9131 21.06 23.2445 17.715 23.6408C18.255 24.1322 18.75 25.099 18.75 26.5732C18.75 28.6971 18.75 30.409 18.75 30.9162C18.75 31.3442 18.99 31.8514 19.755 31.7088C25.71 29.5848 30 23.6566 30 16.6506C30 14.5691 29.612 12.508 28.8582 10.5849C28.1044 8.66177 26.9995 6.91441 25.6066 5.44254C24.2137 3.97067 22.5601 2.80312 20.7403 2.00655C18.9204 1.20998 16.9698 0.799988 15 0.799988Z" fill="white"/>
</svg>
