<svg width="281" height="104" viewBox="0 0 281 104" fill="none" xmlns="http://www.w3.org/2000/svg">
<path d="M157.592 41.3062C158.362 41.3063 158.996 41.9583 158.932 42.7574C158.848 43.8019 158.667 44.6785 158.389 45.3863C158.001 46.4006 157.342 47.1563 156.413 47.6519C155.484 48.159 154.222 48.4127 152.629 48.4127H148.28C147.439 48.4127 146.764 48.5279 146.255 48.7584C145.746 48.9889 145.37 49.3692 145.127 49.899C144.895 50.4407 144.782 51.3112 144.782 52.2447C144.768 52.2437 144.754 52.2402 144.74 52.2388V52.2447H144.782C144.782 52.3486 144.767 52.4491 144.744 52.5455L144.742 52.5845C144.73 52.6605 144.7 52.7304 144.658 52.7906C144.464 53.1983 144.062 53.4791 143.596 53.4791H142.662C142.008 53.4789 141.476 52.9265 141.476 52.2447H141.487V52.2428C141.484 52.243 141.48 52.2444 141.476 52.2447C141.476 51.3112 141.271 50.4407 141.027 49.899C140.795 49.369 140.424 48.9889 139.915 48.7584C139.417 48.5279 138.73 48.4127 137.856 48.4127H133.541C131.948 48.4126 130.686 48.159 129.757 47.6519C128.816 47.1563 128.147 46.4066 127.749 45.4039C127.471 44.7043 127.289 43.828 127.205 42.775C127.141 41.9663 127.782 41.3064 128.561 41.3062C129.34 41.3063 129.934 41.9762 130.116 42.7652C130.18 43.0409 130.265 43.287 130.371 43.5025C130.637 44.0441 131.041 44.4181 131.583 44.6256C132.125 44.8445 132.839 44.9546 133.724 44.9547H138.919C139.815 44.9547 140.568 45.1446 141.177 45.525C141.785 45.9053 142.261 46.6201 142.603 47.6685C142.832 48.3467 142.985 49.2062 143.066 50.2457C143.147 49.1968 143.303 48.3323 143.533 47.6519C143.898 46.6146 144.385 45.9053 144.994 45.525C145.603 45.1448 146.349 44.9547 147.234 44.9547H152.43C153.348 44.9547 154.073 44.8446 154.604 44.6256C155.135 44.4181 155.533 44.0438 155.799 43.5025C155.907 43.2827 155.993 43.0311 156.057 42.7486C156.233 41.968 156.822 41.3062 157.592 41.3062ZM124.16 0.480056C124.852 0.472029 125.796 0.492601 126.9 0.607986C129.107 0.838522 131.974 1.4475 134.785 2.96931C137.603 4.49462 140.356 6.93261 142.324 10.7984C144.288 14.6563 145.456 19.908 145.162 27.0435V30.4976L145.154 30.8121C145.153 30.8541 145.148 30.8956 145.144 30.9371C145.378 31.4297 145.736 31.7865 146.222 32.0064C146.72 32.237 147.406 32.3531 148.28 32.3531H152.596C154.189 32.3531 155.45 32.6067 156.38 33.1138C157.32 33.6095 157.99 34.3582 158.389 35.3609C158.667 36.0606 158.848 36.9376 158.932 37.9908C158.996 38.7994 158.354 39.4585 157.575 39.4586C156.796 39.4586 156.202 38.7896 156.019 38.0006C155.956 37.7248 155.871 37.4788 155.766 37.2633C155.5 36.7217 155.097 36.3467 154.555 36.1392C154.012 35.9202 153.298 35.8101 152.413 35.8101H147.218C146.322 35.8101 145.569 35.6201 144.961 35.2398C144.352 34.8595 143.876 34.1451 143.533 33.0963C143.512 33.0338 143.492 32.9694 143.473 32.9039C143.33 32.935 143.182 32.9527 143.029 32.9527C142.904 32.9527 142.783 32.9396 142.664 32.9185C142.644 32.9849 142.625 33.0506 142.603 33.1138C142.238 34.1507 141.752 34.8594 141.143 35.2398C140.535 35.6202 139.788 35.8101 138.902 35.8101H133.707C132.789 35.8101 132.064 35.9203 131.533 36.1392C131.002 36.3467 130.603 36.7215 130.338 37.2633C130.23 37.4832 130.144 37.7346 130.08 38.0172C129.903 38.7978 129.315 39.4586 128.545 39.4586C127.775 39.4584 127.141 38.8066 127.205 38.0074C127.289 36.9627 127.47 36.0864 127.748 35.3785C128.135 34.3642 128.794 33.6095 129.724 33.1138C130.653 32.6067 131.914 32.3531 133.508 32.3531H137.856C138.697 32.3531 139.373 32.237 139.882 32.0064C140.334 31.8016 140.68 31.4781 140.923 31.0367C140.917 30.9876 140.91 30.9383 140.907 30.8883L140.857 30.022C140.856 30.0049 140.857 29.9874 140.857 29.9703L140.892 29.2506C140.933 28.3615 140.211 27.618 139.334 27.5787C135.451 27.4063 130.588 25.9905 126.914 22.0758C123.23 18.1506 120.81 11.7876 121.677 1.8658H121.678C121.684 1.65121 121.74 1.35257 121.91 1.0865C122.109 0.775006 122.456 0.524002 122.96 0.524002C122.961 0.523885 122.963 0.523136 122.967 0.523025C122.972 0.522851 122.98 0.522483 122.99 0.522049C123.01 0.521164 123.035 0.519873 123.067 0.518142C123.131 0.514705 123.217 0.510526 123.321 0.505447C123.53 0.495227 123.814 0.484077 124.16 0.480056ZM153.555 5.22615C154.916 5.21282 156.093 5.33119 156.956 5.45662C157.388 5.51937 157.742 5.5841 158.002 5.63533C158.131 5.66086 158.237 5.68226 158.316 5.69881C158.356 5.70719 158.388 5.71426 158.413 5.71931C158.425 5.7218 158.435 5.72381 158.442 5.72517C158.447 5.72617 158.45 5.72677 158.451 5.72713L158.618 5.76326C158.989 5.87016 159.233 6.11929 159.366 6.399C159.495 6.66863 159.513 6.95069 159.494 7.15095H159.495C159.048 18.5013 154.309 23.978 148.988 26.2281C148.184 26.5683 147.375 26.3517 146.803 25.8385C146.24 25.3341 145.903 24.546 145.952 23.7047C146.273 18.233 145.216 14.2154 143.529 11.2584C142.908 10.1703 142.99 8.62639 144.132 7.88631C147.346 5.80359 150.834 5.25287 153.555 5.22615Z" fill="white"/>
<path d="M0.595306 67.4404H6.02402L10.0582 84.2412H10.274L14.6734 67.4404H19.3883L23.8043 84.291H24.0035L28.0377 67.4404H33.4664L26.61 91.4795H21.7125L17.1305 75.6084H16.9478L12.3492 91.4795H7.46835L0.595306 67.4404ZM41.3156 91.8281C39.5005 91.8281 37.9178 91.4518 36.5676 90.6992C35.2284 89.9466 34.1935 88.873 33.4631 87.4785C32.7437 86.084 32.384 84.446 32.384 82.5645C32.384 80.7051 32.7437 79.0726 33.4631 77.667C34.1935 76.2503 35.2173 75.1546 36.5344 74.3799C37.8514 73.6051 39.3788 73.2178 41.1164 73.2178C42.7434 73.2178 44.1932 73.5609 45.466 74.2471C46.7388 74.9222 47.7404 75.946 48.4709 77.3184C49.2014 78.6908 49.5666 80.3675 49.5666 82.3486V83.7266H34.3928V80.6553H44.9348C44.9348 79.9248 44.7743 79.2773 44.4533 78.7129C44.1324 78.1374 43.6896 77.6891 43.1252 77.3682C42.5607 77.0472 41.9188 76.8867 41.1994 76.8867C40.4357 76.8867 39.7551 77.0638 39.1574 77.418C38.5598 77.7611 38.0894 78.237 37.7463 78.8457C37.4143 79.4544 37.2427 80.1185 37.2316 80.8379V83.7266C37.2316 84.623 37.4032 85.4089 37.7463 86.084C38.0894 86.7591 38.5708 87.2738 39.1906 87.6279C39.8215 87.9821 40.5519 88.1592 41.382 88.1592C41.9354 88.1592 42.439 88.0817 42.8928 87.9268C43.3465 87.7607 43.7284 87.5505 44.0383 87.2959C44.3592 87.0303 44.6027 86.7204 44.7687 86.3662H49.4504C49.218 87.4619 48.7365 88.4248 48.006 89.2549C47.2866 90.0739 46.3514 90.7103 45.2004 91.1641C44.0604 91.6068 42.7655 91.8281 41.3156 91.8281ZM56.7185 91.4795H51.8045V67.4404H56.7185V91.4795ZM67.8051 91.8281C65.99 91.8281 64.4128 91.4352 63.0736 90.6494C61.7344 89.8636 60.7107 88.7679 60.0023 87.3623C59.294 85.9567 58.9398 84.3464 58.9398 82.5312C58.9398 80.694 59.2995 79.0726 60.0189 77.667C60.7383 76.2614 61.7621 75.1712 63.0902 74.3965C64.4184 73.6107 65.9789 73.2178 67.7719 73.2178C69.3213 73.2178 70.6882 73.5 71.8725 74.0645C73.0678 74.6178 74.003 75.4147 74.6781 76.4551C75.3643 77.4954 75.7406 78.6963 75.807 80.0576H71.1586C71.07 79.46 70.8819 78.9342 70.5941 78.4805C70.3064 78.0156 69.9301 77.6615 69.4652 77.418C69.0004 77.1634 68.4636 77.0361 67.8549 77.0361C67.0691 77.0361 66.3829 77.252 65.7963 77.6836C65.2097 78.1042 64.7504 78.7184 64.4184 79.5264C64.0863 80.3343 63.9203 81.3083 63.9203 82.4482C63.9203 83.5993 64.0808 84.5843 64.4018 85.4033C64.7338 86.2113 65.1931 86.8311 65.7797 87.2627C66.3663 87.6943 67.058 87.9102 67.8549 87.9102C68.4415 87.9102 68.9672 87.7995 69.432 87.5781C69.8969 87.3457 70.2787 87.0026 70.5775 86.5488C70.8764 86.0951 71.07 85.5527 71.1586 84.9219H75.807C75.7296 86.2832 75.3532 87.484 74.6781 88.5244C74.0141 89.5648 73.0899 90.3783 71.9057 90.9648C70.7325 91.5404 69.3656 91.8281 67.8051 91.8281ZM86.1133 91.8281C84.3203 91.8281 82.7542 91.4408 81.415 90.666C80.0758 89.8913 79.0465 88.8011 78.3271 87.3955C77.6077 85.9899 77.248 84.3685 77.248 82.5312C77.248 80.6719 77.6077 79.0449 78.3271 77.6504C79.0465 76.2448 80.0758 75.1546 81.415 74.3799C82.7542 73.6051 84.3203 73.2178 86.1133 73.2178C87.8952 73.2178 89.4557 73.6051 90.7949 74.3799C92.1452 75.1546 93.1745 76.2448 93.8828 77.6504C94.5911 79.0449 94.9453 80.6719 94.9453 82.5312C94.9453 84.3685 94.5911 85.9899 93.8828 87.3955C93.1745 88.8011 92.1452 89.8913 90.7949 90.666C89.4557 91.4408 87.8952 91.8281 86.1133 91.8281ZM86.1465 88.0264C86.9655 88.0264 87.6572 87.7884 88.2217 87.3125C88.7972 86.8366 89.2288 86.1836 89.5166 85.3535C89.8044 84.5124 89.9482 83.5605 89.9482 82.498C89.9482 81.4245 89.8044 80.4727 89.5166 79.6426C89.2288 78.8125 88.7972 78.1595 88.2217 77.6836C87.6572 77.2077 86.9655 76.9697 86.1465 76.9697C85.3053 76.9697 84.5915 77.2077 84.0049 77.6836C83.4183 78.1595 82.9756 78.8125 82.6768 79.6426C82.3779 80.4616 82.2285 81.4134 82.2285 82.498C82.2285 83.5716 82.3779 84.5234 82.6768 85.3535C82.9756 86.1836 83.4183 86.8366 84.0049 87.3125C84.5915 87.7884 85.3053 88.0264 86.1465 88.0264ZM97.1998 73.4502H101.881V76.6045H102.081C102.479 75.5309 103.115 74.7008 103.99 74.1143C104.864 73.5166 105.905 73.2178 107.111 73.2178C107.919 73.2178 108.655 73.3561 109.319 73.6328C109.994 73.8984 110.559 74.2858 111.012 74.7949C111.466 75.304 111.798 75.9072 112.008 76.6045H112.174C112.44 75.9183 112.833 75.3206 113.353 74.8115C113.873 74.3024 114.499 73.9095 115.229 73.6328C115.96 73.3561 116.756 73.2178 117.62 73.2178C118.749 73.2178 119.739 73.4613 120.591 73.9482C121.455 74.4242 122.124 75.127 122.6 76.0566C123.076 76.9753 123.314 78.082 123.314 79.377V91.4795H118.383V80.3066C118.383 79.3216 118.123 78.5745 117.603 78.0654C117.083 77.5452 116.402 77.2852 115.561 77.2852C114.952 77.2852 114.427 77.418 113.984 77.6836C113.552 77.9382 113.215 78.3034 112.971 78.7793C112.739 79.2441 112.623 79.7975 112.623 80.4395V91.4795H107.858V80.1738C107.858 79.5983 107.742 79.0892 107.509 78.6465C107.288 78.2038 106.967 77.8662 106.546 77.6338C106.126 77.4014 105.639 77.2852 105.086 77.2852C104.532 77.2852 104.029 77.4235 103.575 77.7002C103.132 77.9658 102.778 78.3532 102.512 78.8623C102.247 79.3714 102.114 79.9635 102.114 80.6387V91.4795H97.1998V73.4502ZM134.417 91.8281C132.602 91.8281 131.019 91.4518 129.669 90.6992C128.33 89.9466 127.295 88.873 126.565 87.4785C125.845 86.084 125.486 84.446 125.486 82.5645C125.486 80.7051 125.845 79.0726 126.565 77.667C127.295 76.2503 128.319 75.1546 129.636 74.3799C130.953 73.6051 132.48 73.2178 134.218 73.2178C135.845 73.2178 137.295 73.5609 138.568 74.2471C139.84 74.9222 140.842 75.946 141.572 77.3184C142.303 78.6908 142.668 80.3675 142.668 82.3486V83.7266H127.494V80.6553H138.036C138.036 79.9248 137.876 79.2773 137.555 78.7129C137.234 78.1374 136.791 77.6891 136.227 77.3682C135.662 77.0472 135.02 76.8867 134.301 76.8867C133.537 76.8867 132.857 77.0638 132.259 77.418C131.661 77.7611 131.191 78.237 130.848 78.8457C130.516 79.4544 130.344 80.1185 130.333 80.8379V83.7266C130.333 84.623 130.505 85.4089 130.848 86.084C131.191 86.7591 131.672 87.2738 132.292 87.6279C132.923 87.9821 133.654 88.1592 134.484 88.1592C135.037 88.1592 135.541 88.0817 135.994 87.9268C136.448 87.7607 136.83 87.5505 137.14 87.2959C137.461 87.0303 137.704 86.7204 137.87 86.3662H142.552C142.32 87.4619 141.838 88.4248 141.108 89.2549C140.388 90.0739 139.453 90.7103 138.302 91.1641C137.162 91.6068 135.867 91.8281 134.417 91.8281ZM167.979 75.1934C167.769 74.4297 167.426 73.7767 166.95 73.2344C166.474 72.681 165.893 72.2604 165.206 71.9727C164.531 71.6738 163.751 71.5244 162.866 71.5244C161.626 71.5244 160.536 71.8343 159.595 72.4541C158.665 73.0739 157.935 73.9814 157.404 75.1768C156.884 76.361 156.623 77.7832 156.623 79.4434C156.623 81.1146 156.878 82.5479 157.387 83.7432C157.907 84.9274 158.638 85.835 159.579 86.4658C160.53 87.0856 161.643 87.3955 162.915 87.3955C164.066 87.3955 165.057 87.1852 165.887 86.7646C166.728 86.3441 167.365 85.752 167.796 84.9883C168.239 84.2135 168.46 83.3115 168.46 82.2822L169.49 82.4316H163.247V78.6299H173.275V81.6514C173.275 83.721 172.832 85.5251 171.947 87.0635C171.061 88.5908 169.833 89.764 168.261 90.583C166.701 91.402 164.913 91.8115 162.899 91.8115C160.663 91.8115 158.688 91.3135 156.972 90.3174C155.268 89.3102 153.94 87.877 152.988 86.0176C152.047 84.1582 151.577 81.9779 151.577 79.4766C151.577 76.9421 152.064 74.7451 153.037 72.8857C154.023 71.0153 155.362 69.5876 157.055 68.6025C158.748 67.6064 160.658 67.1084 162.783 67.1084C164.576 67.1084 166.214 67.4515 167.697 68.1377C169.18 68.8239 170.386 69.7757 171.316 70.9932C172.257 72.2106 172.838 73.6107 173.059 75.1934H167.979ZM173.985 91.4795L182.286 67.4404H188.694L197.012 91.4795H191.649L185.59 72.8691H185.391L179.314 91.4795H173.985ZM191.882 82.0332V85.9346H179.049V82.0332H191.882ZM205.027 67.4404L211.717 83.7266H212L218.673 67.4404H224.833V91.4795H219.985V75.7246H219.786L213.51 91.3633H210.173L203.915 75.6914H203.715V91.4795H198.884V67.4404H205.027ZM227.751 88.4912L239.787 71.5576H227.718V67.4404H246.046V70.4287L234.01 87.3623H246.079V91.4795H227.751V88.4912ZM247.637 91.4795L255.937 67.4404H262.346L270.663 91.4795H265.301L259.241 72.8691H259.042L252.966 91.4795H247.637ZM265.533 82.0332V85.9346H252.7V82.0332H265.533ZM277.815 84.291H273.581L273.133 67.4404H278.28L277.815 84.291ZM275.706 91.7783C275.208 91.7783 274.744 91.651 274.312 91.3965C273.88 91.1309 273.537 90.7878 273.283 90.3672C273.039 89.9355 272.917 89.4707 272.917 88.9727C272.917 88.4857 273.039 88.0319 273.283 87.6113C273.537 87.1797 273.88 86.8421 274.312 86.5986C274.744 86.3551 275.208 86.2334 275.706 86.2334C276.193 86.2334 276.647 86.3551 277.068 86.5986C277.499 86.8421 277.843 87.1797 278.097 87.6113C278.363 88.0319 278.496 88.4857 278.496 88.9727C278.496 89.4707 278.363 89.9355 278.097 90.3672C277.843 90.7878 277.499 91.1309 277.068 91.3965C276.647 91.651 276.193 91.7783 275.706 91.7783Z" fill="white"/>
</svg>
