<svg width="24" height="32" viewBox="0 0 24 32" fill="none" xmlns="http://www.w3.org/2000/svg">
<path d="M22.5971 24.5805C23.0856 24.5807 23.4881 24.9774 23.4476 25.4642C23.3943 26.1008 23.2793 26.6354 23.1029 27.0668C22.857 27.685 22.4382 28.1455 21.848 28.4476C21.2579 28.7566 20.4571 28.9115 19.4457 28.9115H16.6849C16.151 28.9115 15.722 28.982 15.3988 29.1224C15.0758 29.263 14.8365 29.4947 14.682 29.8178C14.5345 30.148 14.4633 30.6785 14.4633 31.2474C14.4548 31.2468 14.4463 31.2453 14.4379 31.2445V31.2474H14.4633C14.4633 31.3053 14.4551 31.3613 14.4428 31.4154L14.4398 31.4545C14.431 31.5071 14.407 31.5544 14.3744 31.5941C14.2486 31.8342 14.0002 31.9994 13.7103 31.9994H13.1176C12.702 31.9993 12.3647 31.663 12.3646 31.2474H12.3764L12.3754 31.2455C12.3719 31.2458 12.3681 31.2472 12.3646 31.2474C12.3646 30.6785 12.234 30.148 12.0795 29.8178C11.932 29.4947 11.6964 29.263 11.3734 29.1224C11.0573 28.982 10.6216 28.9115 10.0668 28.9115H7.32655C6.31509 28.9115 5.51432 28.7566 4.9242 28.4476C4.32704 28.1455 3.90174 27.6887 3.64881 27.0775C3.47237 26.6511 3.35744 26.1168 3.30409 25.475C3.26325 24.9821 3.67077 24.5805 4.16542 24.5805C4.65978 24.5807 5.03611 24.9884 5.15174 25.4691C5.19214 25.6372 5.24677 25.787 5.31385 25.9183C5.48247 26.2485 5.73914 26.4774 6.08338 26.6039C6.42757 26.7372 6.88102 26.8041 7.44276 26.8041H10.7406C11.3096 26.8041 11.7878 26.9199 12.1742 27.1517C12.5605 27.3836 12.8627 27.8192 13.0805 28.4584C13.2258 28.8717 13.323 29.3952 13.3744 30.0287C13.4256 29.3894 13.5245 28.8623 13.6703 28.4476C13.9021 27.8154 14.2117 27.3836 14.598 27.1517C14.9844 26.9199 15.4589 26.8041 16.0209 26.8041H19.3197C19.9024 26.804 20.3625 26.7372 20.6996 26.6039C21.0368 26.4774 21.2898 26.2485 21.4584 25.9183C21.5268 25.7843 21.5808 25.6307 21.6215 25.4584C21.7339 24.9827 22.1083 24.5805 22.5971 24.5805ZM0.608775 0.0277192C1.10774 0.0277192 15.1365 -1.38102 14.3881 15.8871V16.8568C14.3983 17.399 14.5241 17.8997 14.6723 18.2162C14.8198 18.5392 15.0552 18.771 15.3783 18.9115C15.6944 19.0519 16.1301 19.1224 16.6849 19.1224H19.4242C20.4359 19.1224 21.2374 19.2772 21.8275 19.5863C22.4246 19.8884 22.85 20.3453 23.1029 20.9564C23.2793 21.3828 23.3943 21.9173 23.4476 22.559C23.4884 23.0518 23.0808 23.4534 22.5863 23.4535C22.0917 23.4535 21.7147 23.0457 21.599 22.5648C21.5587 22.3969 21.5049 22.2469 21.4379 22.1156C21.2693 21.7854 21.0125 21.5565 20.6683 21.4301C20.3242 21.2966 19.8709 21.2299 19.309 21.2299H16.0101C15.4411 21.2299 14.963 21.1141 14.5765 20.8822C14.1903 20.6503 13.888 20.2147 13.6703 19.5756C13.6258 19.449 13.5878 19.3116 13.5521 19.1644C13.4873 19.1772 13.4204 19.184 13.3519 19.184C13.2999 19.184 13.2487 19.1787 13.1986 19.1713C13.1627 19.3199 13.1253 19.4589 13.0805 19.5863C12.8486 20.2185 12.5391 20.6504 12.1527 20.8822C11.7665 21.1139 11.2926 21.2298 10.7308 21.2299H7.43202C6.84889 21.2299 6.38839 21.2966 6.05116 21.4301C5.71397 21.5565 5.46097 21.7854 5.29237 22.1156C5.22403 22.2495 5.1699 22.4026 5.12928 22.5746C5.01701 23.0503 4.64344 23.4534 4.15467 23.4535C3.66578 23.4535 3.2633 23.0559 3.30409 22.5687C3.35742 21.9321 3.47232 21.3976 3.64881 20.9662C3.89472 20.3482 4.31272 19.8884 4.90272 19.5863C5.49281 19.2772 6.29353 19.1225 7.30506 19.1224H10.0668C10.6005 19.1224 11.0288 19.0519 11.3519 18.9115C11.6751 18.771 11.9142 18.5393 12.0687 18.2162C12.2043 17.9128 12.2719 17.4402 12.2826 16.9242C12.1556 16.3581 11.629 15.9346 11.0189 15.9086C6.20541 15.7032 -0.978089 12.5387 0.110728 0.566782C0.110737 0.386881 0.210186 0.0279886 0.608775 0.0277192ZM14.389 4.43983C18.3423 1.98073 22.9915 3.12608 23.264 3.16737C23.6252 3.22223 23.6731 3.55323 23.6517 3.71229C23.3717 10.5363 20.417 13.7593 17.1674 15.0785C16.3922 15.393 15.6326 14.691 15.684 13.849C15.8909 10.464 15.2108 7.95311 14.1029 6.08924C13.7677 5.52529 13.8408 4.78088 14.389 4.43983Z" fill="black"/>
</svg>
